<svg width="24" height="28" viewBox="0 0 24 28" fill="none" xmlns="http://www.w3.org/2000/svg">
<path d="M22.9359 3.21424L21.9285 2.10476C21.3434 1.46044 20.3949 1.46044 19.8098 2.10476L1.08498 22.7264C0.499921 23.3707 0.49992 24.4154 1.08498 25.0597L2.0924 26.1692C2.67746 26.8135 3.62602 26.8135 4.21108 26.1692L22.9359 5.54753C23.521 4.90321 23.521 3.85856 22.9359 3.21424Z" fill="#B1B1B1"/>
<path d="M21.9306 26.1352L22.9393 25.0272C23.5251 24.3837 23.5251 23.3404 22.9393 22.6969L4.19075 2.10218C3.60495 1.4587 2.65518 1.45869 2.06939 2.10218L1.06068 3.21021C0.474881 3.85369 0.474882 4.89698 1.06068 5.54046L19.8093 26.1352C20.3951 26.7787 21.3448 26.7787 21.9306 26.1352Z" fill="#B1B1B1"/>
</svg>
